<svg width="81" height="80" viewBox="0 0 81 80" fill="none" xmlns="http://www.w3.org/2000/svg">
<path d="M48.68 46.84L54.28 37.16C54.64 36.56 54.48 35.8 53.96 35.36L48.04 30.72C48.16 29.84 48.24 28.92 48.24 28C48.24 27.08 48.16 26.16 48.04 25.24L53.96 20.6C54.48 20.16 54.64 19.4 54.28 18.8L48.68 9.12C48.32 8.52 47.6 8.28 46.96 8.52L40 11.32C38.56 10.2 37 9.28 35.28 8.56L34.24 1.16C34.12 0.52 33.52 0 32.84 0H21.64C20.96 0 20.36 0.52 20.24 1.2L19.2 8.6C17.52 9.32 15.92 10.24 14.48 11.36L7.52001 8.56C6.88001 8.32 6.16001 8.56 5.80001 9.16L0.200013 18.84C-0.159987 19.44 1.39475e-05 20.2 0.520014 20.64L6.44001 25.28C6.32001 26.16 6.24001 27.08 6.24001 28C6.24001 28.92 6.32001 29.84 6.44001 30.76L0.520014 35.4C1.39475e-05 35.84 -0.159987 36.6 0.200013 37.2L5.80001 46.88C6.16001 47.48 6.88001 47.72 7.52001 47.48L14.48 44.68C15.92 45.8 17.48 46.72 19.2 47.44L20.24 54.84C20.36 55.48 20.96 56 21.64 56H32.84C33.52 56 34.12 55.48 34.24 54.8L35.28 47.4C36.96 46.68 38.56 45.76 40 44.64L46.96 47.44C47.6 47.68 48.32 47.44 48.68 46.84ZM27.24 36C22.84 36 19.24 32.4 19.24 28C19.24 23.6 22.84 20 27.24 20C31.64 20 35.24 23.6 35.24 28C35.24 32.4 31.64 36 27.24 36Z" fill="black"/>
<path d="M79.6809 66.68L75.8409 63.72C75.9209 63.16 76.0009 62.56 76.0009 61.96C76.0009 61.36 75.9609 60.76 75.8409 60.2L79.6409 57.24C79.9609 56.96 80.0809 56.48 79.8409 56.08L76.2409 49.88C76.0409 49.48 75.5609 49.36 75.1209 49.48L70.6809 51.28C69.7609 50.56 68.7609 49.96 67.6409 49.52L66.9609 44.8C66.9209 44.32 66.5209 44 66.1209 44H58.9609C58.5209 44 58.1209 44.32 58.0809 44.76L57.4009 49.48C56.3209 49.96 55.2809 50.52 54.3609 51.24L49.9209 49.44C49.5209 49.28 49.0409 49.44 48.8009 49.84L45.2009 56.04C45.0009 56.44 45.0409 56.92 45.4009 57.2L49.2009 60.16C49.1209 60.72 49.0809 61.32 49.0809 61.92C49.0809 62.52 49.1209 63.12 49.2009 63.68L45.4009 66.64C45.0809 66.92 44.9609 67.4 45.2009 67.8L48.8009 74C49.0009 74.4 49.4809 74.52 49.9209 74.4L54.3609 72.6C55.2809 73.32 56.2809 73.92 57.4009 74.36L58.0809 79.08C58.1609 79.52 58.5209 79.84 58.9609 79.84H66.1209C66.5609 79.84 66.9609 79.52 67.0009 79.08L67.6809 74.36C68.7609 73.88 69.8009 73.32 70.6809 72.6L75.1609 74.4C75.5609 74.56 76.0409 74.4 76.2809 74L79.8809 67.8C80.1209 67.44 80.0009 66.96 79.6809 66.68ZM62.5209 67.32C59.5609 67.32 57.1209 64.92 57.1209 61.92C57.1209 58.92 59.5209 56.52 62.5209 56.52C65.5209 56.52 67.9209 58.92 67.9209 61.92C67.9209 64.92 65.4809 67.32 62.5209 67.32Z" fill="black"/>
</svg>
