<svg width="81" height="80" viewBox="0 0 81 80" fill="none" xmlns="http://www.w3.org/2000/svg">
<path d="M48.6742 46.84L54.2742 37.16C54.6342 36.56 54.4742 35.8 53.9542 35.36L48.0342 30.72C48.1542 29.84 48.2342 28.92 48.2342 28C48.2342 27.08 48.1542 26.16 48.0342 25.24L53.9542 20.6C54.4742 20.16 54.6342 19.4 54.2742 18.8L48.6742 9.12C48.3142 8.52 47.5942 8.28 46.9542 8.52L39.9942 11.32C38.5542 10.2 36.9942 9.28 35.2742 8.56L34.2342 1.16C34.1142 0.52 33.5142 0 32.8342 0H21.6342C20.9542 0 20.3542 0.52 20.2342 1.2L19.1942 8.6C17.5142 9.32 15.9142 10.24 14.4742 11.36L7.51415 8.56C6.87415 8.32 6.15415 8.56 5.79415 9.16L0.194154 18.84C-0.165846 19.44 -0.00584543 20.2 0.514155 20.64L6.43415 25.28C6.31415 26.16 6.23415 27.08 6.23415 28C6.23415 28.92 6.31415 29.84 6.43415 30.76L0.514155 35.4C-0.00584543 35.84 -0.165846 36.6 0.194154 37.2L5.79415 46.88C6.15415 47.48 6.87415 47.72 7.51415 47.48L14.4742 44.68C15.9142 45.8 17.4742 46.72 19.1942 47.44L20.2342 54.84C20.3542 55.48 20.9542 56 21.6342 56H32.8342C33.5142 56 34.1142 55.48 34.2342 54.8L35.2742 47.4C36.9542 46.68 38.5542 45.76 39.9942 44.64L46.9542 47.44C47.5942 47.68 48.3142 47.44 48.6742 46.84ZM27.2342 36C22.8342 36 19.2342 32.4 19.2342 28C19.2342 23.6 22.8342 20 27.2342 20C31.6342 20 35.2342 23.6 35.2342 28C35.2342 32.4 31.6342 36 27.2342 36Z" fill="#2B2626"/>
<path d="M79.6751 66.68L75.8351 63.72C75.9151 63.16 75.9951 62.56 75.9951 61.96C75.9951 61.36 75.9551 60.76 75.8351 60.2L79.6351 57.24C79.9551 56.96 80.0751 56.48 79.8351 56.08L76.2351 49.88C76.0351 49.48 75.5551 49.36 75.1151 49.48L70.6751 51.28C69.7551 50.56 68.7551 49.96 67.6351 49.52L66.9551 44.8C66.9151 44.32 66.5151 44 66.1151 44H58.9551C58.5151 44 58.1151 44.32 58.0751 44.76L57.3951 49.48C56.3151 49.96 55.2751 50.52 54.3551 51.24L49.9151 49.44C49.5151 49.28 49.0351 49.44 48.7951 49.84L45.1951 56.04C44.9951 56.44 45.0351 56.92 45.3951 57.2L49.1951 60.16C49.1151 60.72 49.0751 61.32 49.0751 61.92C49.0751 62.52 49.1151 63.12 49.1951 63.68L45.3951 66.64C45.0751 66.92 44.9551 67.4 45.1951 67.8L48.7951 74C48.9951 74.4 49.4751 74.52 49.9151 74.4L54.3551 72.6C55.2751 73.32 56.2751 73.92 57.3951 74.36L58.0751 79.08C58.1551 79.52 58.5151 79.84 58.9551 79.84H66.1151C66.5551 79.84 66.9551 79.52 66.9951 79.08L67.6751 74.36C68.7551 73.88 69.7951 73.32 70.6751 72.6L75.1551 74.4C75.5551 74.56 76.0351 74.4 76.2751 74L79.8751 67.8C80.1151 67.44 79.9951 66.96 79.6751 66.68ZM62.5151 67.32C59.5551 67.32 57.1151 64.92 57.1151 61.92C57.1151 58.92 59.5151 56.52 62.5151 56.52C65.5151 56.52 67.9151 58.92 67.9151 61.92C67.9151 64.92 65.4751 67.32 62.5151 67.32Z" fill="#9D007B"/>
</svg>
