<svg width="558" height="487" viewBox="0 0 558 487" fill="none" xmlns="http://www.w3.org/2000/svg">
<path d="M185.901 487C168.868 487 151.86 486.517 134.877 485.551C110.611 484.17 85.5181 482.743 62.1955 462.25C45.8804 447.916 31.4308 424.919 20.4094 395.742C13.0428 375.966 7.64128 354.512 4.39459 332.133C-1.66174 291.389 -1.45545 248.937 4.9961 208.345C7.25697 194.428 10.3737 180.895 14.3017 167.942C31.3098 112.144 62.3315 74.6892 99.4127 65.1807C99.719 65.1178 100.029 65.1073 100.336 65.1495C100.503 65.1636 100.669 65.1788 100.839 65.1675L101.057 65.0577C101.616 64.7497 102.191 64.5161 102.774 64.3594C159.963 50.8716 220.42 78.1621 277.605 143.278C321.82 193.633 380.418 220.748 456.747 226.173L457.83 226.263C479.079 228.197 499.632 242.075 517.271 266.399C534.681 290.406 547.753 322.437 555.073 359.029C555.973 363.49 556.798 368.134 557.525 372.831C558.202 377.196 558.154 381.764 557.387 386.091C556.619 390.418 555.157 394.356 553.144 397.523V397.532L552.954 397.841C552.496 398.562 552.015 399.254 551.522 399.897L550.944 400.653C546.066 407.019 542.213 412.047 537.602 415.953C534.527 418.54 531.256 420.496 527.869 421.775C509.268 428.959 490.379 435.619 471.726 441.573C435.501 453.144 398.322 462.69 361.221 469.943C303.056 481.305 244.506 487.001 185.901 487ZM99.9026 67.1257C99.7887 67.124 99.6748 67.1362 99.5621 67.1623C62.8276 76.5819 32.0996 113.669 15.26 168.914C11.3709 181.74 8.28494 195.138 6.04655 208.917C-0.346215 249.149 -0.549935 291.224 5.45252 331.606C8.66743 353.771 14.0166 375.02 21.312 394.607C32.2256 423.498 46.5274 446.265 62.6715 460.447C85.7847 480.756 110.759 482.177 134.911 483.551C210.45 487.826 286.085 482.612 361.104 467.955C398.181 460.705 435.336 451.166 471.537 439.602C490.178 433.654 509.054 426.998 527.641 419.818C530.947 418.572 534.139 416.663 537.14 414.138C541.658 410.312 545.474 405.331 550.305 399.026L550.884 398.271C551.307 397.717 551.723 397.126 552.12 396.51L552.234 396.321C556.205 389.982 557.748 381.618 556.47 373.375V373.374C555.751 368.727 554.935 364.133 554.044 359.718C539.089 284.966 500.403 232.14 457.778 228.261L456.7 228.171C421.834 225.693 391.324 218.827 363.43 207.18C330.13 193.276 301.06 172.347 277.024 144.975C220.058 80.108 159.853 52.9191 102.914 66.3429C102.382 66.4882 101.859 66.7032 101.349 66.9855L100.956 67.1598C100.733 67.1757 100.509 67.1714 100.286 67.1471C100.154 67.1364 100.027 67.1257 99.9026 67.1257Z" fill="#F0F0F0"/>
<path d="M279.322 185.056C276.824 182.66 274.269 169.295 271.08 167.938C273.464 173.207 271.733 174.602 271.72 180.384C271.75 183.667 271.367 186.941 270.579 190.129H216.555V147.967C216.555 144.178 217.301 140.427 218.75 136.927C220.2 133.427 222.325 130.247 225.004 127.568C227.682 124.889 230.863 122.764 234.363 121.315C237.863 119.865 241.614 119.119 245.402 119.119C246.848 119.147 248.285 119.358 249.678 119.745C254.322 120.999 258.554 123.452 261.95 126.857C265.347 130.263 267.788 134.502 269.029 139.149C273.147 154.203 279.697 179.26 279.322 185.056Z" fill="#2F2E41"/>
<path d="M219.724 236.923L219.751 204.061L200.433 205.787L207.251 226.513L204.06 278.61C202.513 278.957 201.1 279.747 199.993 280.883C198.887 282.02 198.135 283.454 197.83 285.01C197.524 286.566 197.678 288.178 198.273 289.648C198.867 291.118 199.877 292.384 201.178 293.29C202.48 294.197 204.017 294.705 205.602 294.753C207.187 294.801 208.752 294.387 210.106 293.561C211.46 292.735 212.544 291.533 213.227 290.101C213.909 288.669 214.161 287.07 213.95 285.498L219.724 236.923Z" fill="#FFB6B6"/>
<path d="M257.741 471.759L265.545 471.758L269.258 441.656H257.739L257.741 471.759Z" fill="#FFB6B6"/>
<path d="M255.098 467.91L267.435 467.174V472.46L279.164 480.56C279.743 480.96 280.18 481.535 280.409 482.2C280.639 482.866 280.65 483.588 280.44 484.26C280.23 484.932 279.812 485.519 279.244 485.937C278.677 486.354 277.992 486.579 277.288 486.579H262.6L260.068 481.35L259.08 486.579H253.542L255.098 467.91Z" fill="#2F2E41"/>
<path d="M212.615 471.759L220.42 471.758L224.132 441.656H212.614L212.615 471.759Z" fill="#FFB6B6"/>
<path d="M209.973 467.91L222.31 467.174V472.46L234.039 480.56C234.618 480.96 235.055 481.535 235.284 482.2C235.514 482.866 235.525 483.588 235.315 484.26C235.105 484.932 234.687 485.519 234.12 485.937C233.552 486.354 232.867 486.579 232.163 486.579H217.475L214.943 481.35L213.955 486.579H208.417L209.973 467.91Z" fill="#2F2E41"/>
<path d="M250.791 168.572L234.624 168.889L223.212 180.936L214.062 182.277C209.924 182.884 206.119 184.894 203.283 187.969C200.448 191.045 198.754 195 198.485 199.175L200.07 207.881H209.581L215.082 240.184C212.943 245.635 212.798 249.938 217.189 251.628L230.82 277.305L271.08 259.236C273.121 255.726 273.776 252.2 271.689 248.772L274.567 199.322H284.244C284.244 190.073 281.116 182.276 271.925 181.247C268.275 180.852 264.607 180.642 260.936 180.618L250.791 168.572Z" fill="#E6E6E6"/>
<path d="M271.08 259.235C271.08 259.235 231.771 266.209 217.189 251.627C217.189 251.627 215.708 254.14 213.478 258.308C212.836 259.507 211.597 260.319 210.849 261.771C210.169 263.091 208.419 264.713 207.679 266.21C207.083 267.414 208.039 268.987 207.419 270.288C199.951 285.952 191.226 308.047 193.096 322.636C194.303 332.045 196.794 353.938 199.418 377.453C199.623 379.29 197.962 381.65 198.168 383.502C198.363 385.248 200.424 386.485 200.618 388.236C200.747 389.398 199.308 390.583 199.436 391.744C199.578 393.017 201.287 394.266 201.427 395.534C205.022 428.002 208.313 458.315 208.313 458.315H226.699L230.168 389.083L227.333 363.847L233.99 312.809L243.183 361.311L244.366 388.608L254.081 459.583H271.08V390.875L272.348 387.306L271.08 382.728L272.348 377.796L271.08 372.424V259.235Z" fill="#2F2E41"/>
<path d="M255.753 159.195C253.249 162.522 249.686 164.897 245.652 165.928C241.617 166.96 237.352 166.587 233.558 164.87C229.764 163.154 226.668 160.197 224.78 156.486C222.891 152.774 222.322 148.531 223.168 144.453C224.013 140.376 226.222 136.708 229.43 134.054C232.639 131.399 236.655 129.917 240.819 129.85C244.983 129.783 249.045 131.137 252.336 133.687C255.628 136.237 257.953 139.833 258.928 143.881C258.981 144.101 259.026 144.319 259.069 144.546C259.584 147.083 259.555 149.701 258.983 152.226C258.412 154.752 257.311 157.127 255.753 159.195Z" fill="#FFB6B6"/>
<path d="M251.932 148.74C251.544 146.789 250.56 145.006 249.118 143.636C249.26 145.506 249 147.384 248.357 149.146C243.537 149.572 238.695 148.613 234.402 146.381C231.169 144.188 227.054 144.378 222.261 146.381C222.26 144.05 222.719 141.741 223.611 139.587C224.503 137.433 225.811 135.476 227.46 133.828C229.108 132.179 231.065 130.872 233.219 129.98C235.373 129.088 237.682 128.629 240.013 128.629H243.183C247.891 128.63 252.406 130.5 255.735 133.829C259.064 137.158 260.935 141.673 260.936 146.381C258.01 147.431 254.997 148.22 251.932 148.74Z" fill="#2F2E41"/>
<path d="M113.244 375C141.411 375 164.244 352.167 164.244 324C164.244 295.833 141.411 273 113.244 273C85.0776 273 62.2441 295.833 62.2441 324C62.2441 352.167 85.0776 375 113.244 375Z" fill="#F0F0F0"/>
<path d="M323 102C351.167 102 374 79.1665 374 51C374 22.8335 351.167 0 323 0C294.833 0 272 22.8335 272 51C272 79.1665 294.833 102 323 102Z" fill="#F0F0F0"/>
<path d="M471.391 429.609C499.557 429.609 522.391 406.776 522.391 378.609C522.391 350.443 499.557 327.609 471.391 327.609C443.224 327.609 420.391 350.443 420.391 378.609C420.391 406.776 443.224 429.609 471.391 429.609Z" fill="#F0F0F0"/>
<path d="M415 56.5609V172.207C415.001 174.609 414.053 176.914 412.363 178.622C410.674 180.329 408.379 181.301 405.977 181.326C405.944 181.33 405.91 181.331 405.877 181.33H392.417C381.647 181.33 371.319 177.052 363.704 169.437C356.089 161.822 351.811 151.493 351.811 140.724V56.5609C351.811 54.1412 352.772 51.8206 354.483 50.1097C356.194 48.3987 358.514 47.4375 360.934 47.4375H366.388C363.861 54.8081 398.153 57.9113 400.036 47.4375H405.877C408.297 47.4375 410.617 48.3987 412.328 50.1097C414.039 51.8207 415 54.1412 415 56.5609Z" fill="#2B2626"/>
<path d="M375.058 38.7914C375.058 38.4744 375.184 38.1705 375.408 37.9463C375.632 37.7222 375.936 37.5961 376.253 37.5957H384.384C384.7 37.5966 385.003 37.723 385.227 37.9471C385.45 38.1712 385.576 38.4748 385.576 38.7914C385.576 39.1079 385.45 39.4115 385.227 39.6356C385.003 39.8597 384.7 39.9861 384.384 39.987H376.253C375.936 39.9866 375.632 39.8606 375.408 39.6364C375.184 39.4123 375.058 39.1083 375.058 38.7914Z" fill="#3F3D56"/>
<path d="M408.67 196H357.254C353.265 195.996 349.441 194.409 346.62 191.589C343.799 188.768 342.213 184.944 342.208 180.955V100.113C341.926 99.9105 341.696 99.6434 341.537 99.334C341.379 99.0247 341.296 98.682 341.297 98.3344V90.2041C341.296 89.8566 341.379 89.514 341.537 89.2047C341.696 88.8954 341.926 88.6284 342.208 88.4258V86.2436C341.926 86.041 341.696 85.7739 341.537 85.4647C341.379 85.1554 341.296 84.8128 341.297 84.4653V76.3344C341.296 75.9869 341.379 75.6443 341.537 75.3351C341.696 75.0258 341.926 74.7588 342.208 74.5561V70.6123C341.859 70.425 341.568 70.1466 341.366 69.8067C341.163 69.4668 341.057 69.0783 341.058 68.6826V60.5522C341.057 60.1565 341.163 59.7678 341.366 59.4279C341.568 59.0879 341.859 58.8093 342.208 58.622V47.8154C342.213 43.8263 343.799 40.0019 346.62 37.1813C349.441 34.3606 353.265 32.774 357.254 32.7695H408.67C412.659 32.774 416.484 34.3607 419.304 37.1813C422.125 40.002 423.712 43.8264 423.716 47.8154V71.3716C423.987 71.5411 424.211 71.7766 424.366 72.0562C424.521 72.3357 424.602 72.6501 424.602 72.9697V88.4726C424.602 88.7923 424.521 89.1067 424.366 89.3863C424.211 89.666 423.987 89.9016 423.716 90.0712V180.955C423.712 184.944 422.125 188.768 419.304 191.589C416.484 194.409 412.659 195.996 408.67 196ZM357.254 34.7695C353.795 34.7734 350.479 36.1491 348.034 38.5948C345.588 41.0406 344.212 44.3566 344.208 47.8154V60.3232L343.246 60.3604C343.196 60.3621 343.149 60.383 343.114 60.4187C343.079 60.4544 343.058 60.5022 343.058 60.5522V68.6825C343.059 68.7325 343.079 68.7802 343.114 68.8159C343.149 68.8516 343.196 68.8725 343.246 68.8745L344.208 68.9111V75.9604L343.447 76.1479C343.405 76.158 343.368 76.1818 343.34 76.2156C343.313 76.2493 343.298 76.2911 343.297 76.3344V84.4653C343.298 84.5086 343.313 84.5504 343.34 84.5841C343.368 84.6178 343.405 84.6416 343.447 84.6518L344.208 84.8393V89.83L343.447 90.0175C343.405 90.0276 343.368 90.0515 343.34 90.0852C343.313 90.1189 343.298 90.1607 343.297 90.204V98.3344C343.298 98.3778 343.313 98.4197 343.34 98.4535C343.367 98.4873 343.405 98.5112 343.447 98.5214L344.208 98.7089V180.955C344.212 184.413 345.588 187.729 348.034 190.175C350.479 192.621 353.795 193.997 357.254 194H408.67C412.129 193.996 415.445 192.621 417.891 190.175C420.337 187.729 421.712 184.413 421.716 180.955V88.3588H422.602V73.084H421.716V47.8154C421.712 44.3566 420.337 41.0406 417.891 38.5949C415.445 36.1492 412.129 34.7735 408.67 34.7695L357.254 34.7695Z" fill="#3F3D56"/>
<path d="M388.927 39.987C389.587 39.987 390.123 39.4517 390.123 38.7914C390.123 38.131 389.587 37.5957 388.927 37.5957C388.267 37.5957 387.731 38.131 387.731 38.7914C387.731 39.4517 388.267 39.987 388.927 39.987Z" fill="#3F3D56"/>
<path d="M244.075 309.403H110.288C108.388 309.398 106.567 308.641 105.224 307.298C103.88 305.954 103.123 304.134 103.118 302.234V237.045C103.123 235.145 103.88 233.324 105.223 231.981C106.567 230.637 108.387 229.88 110.287 229.875H244.074C245.974 229.88 247.795 230.637 249.138 231.98C250.482 233.323 251.239 235.144 251.244 237.044V302.233C251.239 304.133 250.482 305.954 249.139 307.297C247.796 308.641 245.975 309.398 244.075 309.403Z" fill="white"/>
<path d="M244.075 309.403H110.288C108.388 309.398 106.567 308.641 105.224 307.298C103.88 305.954 103.123 304.134 103.118 302.234V237.045C103.123 235.145 103.88 233.324 105.223 231.981C106.567 230.637 108.387 229.88 110.287 229.875H244.074C245.974 229.88 247.795 230.637 249.138 231.98C250.482 233.323 251.239 235.144 251.244 237.044V302.233C251.239 304.133 250.482 305.954 249.139 307.297C247.796 308.641 245.975 309.398 244.075 309.403ZM110.288 231.875C108.918 231.879 107.605 232.425 106.637 233.394C105.668 234.363 105.122 235.676 105.118 237.046V302.233C105.122 303.603 105.668 304.916 106.637 305.885C107.606 306.853 108.919 307.399 110.289 307.403H244.073C245.443 307.399 246.757 306.853 247.725 305.884C248.694 304.915 249.24 303.602 249.244 302.232V237.045C249.24 235.675 248.694 234.362 247.725 233.393C246.756 232.425 245.443 231.879 244.073 231.875L110.288 231.875Z" fill="#3F3D56"/>
<path d="M184.352 299.768C157.966 299.768 130.453 299.516 120.188 299.353C118.837 299.325 117.551 298.77 116.604 297.807C115.657 296.844 115.123 295.548 115.118 294.197V240.236C115.119 239.752 115.311 239.288 115.652 238.946C115.994 238.603 116.457 238.41 116.941 238.408H237.417C237.901 238.409 238.364 238.601 238.707 238.942C239.049 239.284 239.242 239.747 239.244 240.231V276.843C239.222 282.819 236.858 288.549 232.659 292.802C228.461 297.056 222.763 299.494 216.787 299.595C207.22 299.72 195.891 299.768 184.352 299.768Z" fill="#9D007B"/>
<path d="M230.266 273.481H121.407C120.495 273.478 119.607 273.195 118.862 272.67C118.117 272.145 117.551 271.403 117.243 270.545L104.921 235.979C104.684 235.312 104.61 234.598 104.706 233.897C104.801 233.196 105.064 232.528 105.471 231.949C105.879 231.371 106.419 230.898 107.047 230.571C107.674 230.245 108.371 230.074 109.079 230.072L245.151 229.883C245.798 229.882 246.437 230.023 247.024 230.296C247.61 230.57 248.129 230.968 248.545 231.464C248.961 231.959 249.263 232.54 249.429 233.165C249.596 233.79 249.624 234.444 249.511 235.081L249.616 235.125L249.225 236.037L249.221 236.046L234.326 270.801C233.987 271.597 233.421 272.275 232.699 272.752C231.977 273.228 231.131 273.482 230.266 273.481ZM245.158 231.883L109.083 232.072C108.695 232.073 108.313 232.167 107.97 232.346C107.626 232.524 107.33 232.783 107.106 233.1C106.883 233.417 106.739 233.783 106.687 234.167C106.635 234.551 106.675 234.942 106.805 235.308L119.126 269.873C119.295 270.342 119.605 270.749 120.013 271.037C120.422 271.324 120.909 271.479 121.408 271.481H230.266C230.739 271.481 231.203 271.342 231.598 271.082C231.993 270.821 232.302 270.45 232.488 270.014L247.383 235.258C247.541 234.89 247.605 234.488 247.57 234.089C247.534 233.69 247.4 233.306 247.179 232.971C246.959 232.637 246.658 232.362 246.306 232.172C245.953 231.982 245.558 231.883 245.158 231.883Z" fill="#3F3D56"/>
<path d="M176.978 281.005C181.686 281.005 185.502 277.189 185.502 272.481C185.502 267.773 181.686 263.957 176.978 263.957C172.27 263.957 168.454 267.773 168.454 272.481C168.454 277.189 172.27 281.005 176.978 281.005Z" fill="white"/>
<path d="M383.734 168.005C388.442 168.005 392.258 164.189 392.258 159.481C392.258 154.773 388.442 150.957 383.734 150.957C379.026 150.957 375.21 154.773 375.21 159.481C375.21 164.189 379.026 168.005 383.734 168.005Z" fill="white"/>
<path d="M449.521 368.729L426.751 346.249C425.642 345.146 424.327 344.273 422.881 343.679C421.434 343.085 419.885 342.783 418.321 342.789H418.241C416.665 342.794 415.106 343.111 413.654 343.722C412.202 344.333 410.886 345.226 409.781 346.349C404.689 351.502 401.794 358.427 401.702 365.67C401.611 372.913 404.331 379.91 409.291 385.189C409.531 385.449 409.781 385.699 410.031 385.949C411.416 387.326 412.944 388.549 414.591 389.599C419.092 392.508 424.341 394.047 429.701 394.029H429.871C433.549 394.017 437.189 393.275 440.579 391.847C443.969 390.419 447.042 388.333 449.621 385.709C451.855 383.442 453.1 380.382 453.081 377.198C453.062 374.015 451.782 370.97 449.521 368.729ZM448.201 384.299C443.973 388.558 438.407 391.229 432.439 391.863C426.472 392.497 420.469 391.055 415.441 387.779C414.003 386.827 412.66 385.739 411.431 384.529C406.525 379.683 403.744 373.087 403.701 366.192C403.658 359.296 406.356 352.666 411.201 347.759C412.122 346.821 413.22 346.075 414.432 345.565C415.644 345.055 416.946 344.791 418.261 344.789H418.321C419.623 344.785 420.913 345.037 422.117 345.531C423.322 346.025 424.417 346.752 425.341 347.669L448.111 370.159C449.996 372.023 451.064 374.559 451.081 377.211C451.098 379.862 450.062 382.411 448.201 384.299Z" fill="#3F3D56"/>
<path d="M374.81 294.95L352.04 272.46C349.799 270.236 346.768 268.992 343.61 269H343.54C341.963 269.006 340.402 269.325 338.948 269.938C337.495 270.551 336.177 271.445 335.07 272.57C330.861 276.845 328.132 282.355 327.283 288.294C326.433 294.232 327.509 300.287 330.35 305.57L330.36 305.58C331.533 307.741 332.989 309.735 334.69 311.51C334.88 311.73 335.1 311.95 335.32 312.17C340.549 317.36 347.623 320.266 354.99 320.25H355.17C358.849 320.235 362.489 319.491 365.879 318.061C369.269 316.631 372.342 314.544 374.92 311.92C376.028 310.799 376.903 309.47 377.497 308.01C378.09 306.55 378.391 304.988 378.38 303.412C378.37 301.836 378.05 300.278 377.437 298.826C376.825 297.374 375.932 296.057 374.81 294.95ZM373.49 310.52C371.097 312.955 368.245 314.892 365.099 316.218C361.953 317.545 358.575 318.236 355.16 318.25H354.99C349.863 318.248 344.85 316.73 340.583 313.887C336.316 311.043 332.985 307.002 331.009 302.27C329.032 297.539 328.499 292.328 329.476 287.295C330.454 282.261 332.897 277.629 336.5 273.98C338.365 272.095 340.901 271.027 343.552 271.01C346.203 270.993 348.752 272.029 350.64 273.89L373.41 296.37C375.294 298.238 376.36 300.776 376.375 303.429C376.39 306.081 375.353 308.631 373.49 310.52Z" fill="#3F3D56"/>
<path d="M450.976 375.797L425.873 351.003C424.227 349.381 422.004 348.478 419.693 348.492C417.382 348.507 415.171 349.437 413.545 351.08C411.511 353.134 409.902 355.57 408.81 358.247C407.718 360.924 407.165 363.79 407.181 366.681C407.197 369.572 407.783 372.431 408.906 375.096C410.028 377.76 411.664 380.178 413.721 382.209C415.778 384.241 418.215 385.847 420.894 386.936C423.572 388.025 426.438 388.576 429.329 388.556C432.221 388.537 435.079 387.947 437.743 386.822C440.406 385.697 442.821 384.058 444.85 381.999L450.976 375.797Z" fill="black"/>
<path d="M376.271 302.014L351.168 277.22C349.522 275.598 347.299 274.695 344.988 274.709C342.677 274.723 340.466 275.654 338.84 277.296C336.806 279.351 335.197 281.787 334.105 284.464C333.013 287.141 332.46 290.007 332.476 292.898C332.492 295.789 333.078 298.648 334.2 301.313C335.323 303.977 336.959 306.394 339.016 308.426C341.073 310.458 343.51 312.064 346.189 313.153C348.867 314.242 351.733 314.792 354.624 314.773C357.515 314.753 360.374 314.164 363.038 313.039C365.701 311.914 368.116 310.275 370.145 308.215L376.271 302.014Z" fill="black"/>
<path d="M423.39 391.24L422.79 392.82C419.97 391.75 417.237 390.677 414.59 389.6C367.71 370.47 345.33 348.08 330.36 305.58L330.35 305.57C329.64 303.57 328.95 301.523 328.28 299.43L329.86 298.92C330.389 300.933 331.161 302.874 332.16 304.7C332.98 307.03 333.824 309.3 334.69 311.51C348.76 347.38 369.51 367.88 409.29 385.19C411.29 386.06 413.34 386.923 415.44 387.78C417.879 389.369 420.566 390.538 423.39 391.24Z" fill="#3F3D56"/>
<path d="M351.624 318.428L350.218 319.852L402.156 371.149L403.562 369.726L351.624 318.428Z" fill="#3F3D56"/>
<path d="M283.76 229.314L283.787 196.451L264.469 198.177L271.287 218.904L246.539 256.418C244.992 256.765 243.579 257.555 242.473 258.692C241.366 259.828 240.615 261.262 240.309 262.818C240.004 264.375 240.158 265.986 240.752 267.456C241.347 268.927 242.356 270.192 243.658 271.099C244.959 272.005 246.496 272.513 248.082 272.561C249.667 272.609 251.232 272.195 252.586 271.369C253.94 270.543 255.024 269.341 255.706 267.909C256.389 266.478 256.64 264.879 256.429 263.307L283.76 229.314Z" fill="#FFB6B6"/>
</svg>
